{"title":"Verenigde Staten","uid":6975715,"size":5783123012,"categoryP":"video","categoryS":"hd___movies","magnet":"?xt=urn:btih:8f743c6711c0e285e4c1a46b954dc45ec7c9c686&amp;dn=Verenigde+Staten&amp;tr=udp%3A%2F%2Ftracker.openbittorrent.com%3A80&amp;tr=udp%3A%2F%2Fopen.demonii.com%3A1337&amp;tr=udp%3A%2F%2Ftracker.coppersurfer.tk%3A6969&amp;tr=udp%3A%2F%2Fexodus.desync.com%3A6969","seeders":0,"leechers":0,"uploader":"Shadow7171","files":1,"time":1327244302,"description":"Verenigde Staten\nActie / Fantasy\n110 minuten\n\ngeregisseerd door Tarsem Singh\nmet Henry Cavill, Mickey Rourke en Freida Pinto\n\nDe bloeddorstige koning Hyperion (Mickey Rourke) laat met zijn leger een spoor van vernietiging achter in het oude Griekenland. Hyperion is op zoek naar de boog van Epirus. Daarmee wil hij de Goden van Olympus omverwerpen en zichzelf tot heerser van de wereld kronen. Een door Zeus (Luke Evans) uitverkoren sterfelijke, Theseus (Henry Cavill), moet het gevecht tegen Hyperion leiden. Met de hulp van het orakel Phaedra (Freida Pinto) verzamelt de jonge krijger genoeg mannen om zich heen om het op te nemen tegen de verraderlijke koning en zijn leger.\n\n\nMomenteel te zien in 1 bioscoop \n\n\n\n\n\n\n\n\nINFO\n\nFormat                           : Matroska\nFile size                        : 5.39 GiB\nDuration                         : 1h 50mn\nOverall bit rate                 : 6 986 Kbps\nMovie name                       : Immortals 2011 RC BRRip alwin1971\nEncoded date                     : UTC 2012-01-22 11:26:06\nWriting application              : mkvmerge v5.2.1 (\\\\\\\\\\\\\\'A Far Off Place\\\\\\\\\\\\\\') built on Jan  2 2012 23:21:10\nWriting library                  : libebml v1.2.3 + libmatroska v1.3.0\n\nVideo\nID                               : 1\nFormat                           : AVC\nFormat/Info                      : Advanced Video Codec\nFormat profile                   : &lt;a class=&quot;__cf_email__&quot; href=&quot;/cdn-cgi/l/email-protection&quot; data-cfemail=&quot;e9a1808e81a9a5dcc7d9&quot;&gt;[email&amp;#160;protected]&lt;/a&gt;&lt;script cf-hash='f9e31' type=&quot;text/javascript&quot;&gt;\n/* &lt;![CDATA[ */!function(){try{var t=&quot;currentScript&quot;in document?document.currentScript:function(){for(var t=document.getElementsByTagName(&quot;script&quot;),e=t.length;e--;)if(t[e].getAttribute(&quot;cf-hash&quot;))return t[e]}();if(t&amp;&amp;t.previousSibling){var e,r,n,i,c=t.previousSibling,a=c.getAttribute(&quot;data-cfemail&quot;);if(a){for(e=&quot;&quot;,r=parseInt(a.substr(0,2),16),n=2;a.length-n;n+=2)i=parseInt(a.substr(n,2),16)^r,e+=String.fromCharCode(i);e=document.createTextNode(e),c.parentNode.replaceChild(e,c)}}}catch(u){}}();/* ]]&gt; */&lt;/script&gt;\nFormat settings, CABAC           : No\nFormat settings, ReFrames        : 5 frames\nCodec ID                         : V_MPEG4/ISO/AVC\nDuration                         : 1h 50mn\nBit rate                         : 6 527 Kbps\nWidth                            : 1 920 pixels\nHeight                           : 1 080 pixels\nDisplay aspect ratio             : 16:9\nFrame rate mode                  : Variable\nFrame rate                       : 23.976 fps\nColor space                      : YUV\nChroma subsampling               : 4:2:0\nBit depth                        : 8 bits\nScan type                        : Progressive\nBits/(Pixel*Frame)               : 0.131\nStream size                      : 5.03 GiB (93%)\nLanguage                         : English\n\nAudio\nID                               : 2\nFormat                           : AC-3\nFormat/Info                      : Audio Coding 3\nMode extension                   : CM (complete main)\nCodec ID                         : A_AC3\nDuration                         : 1h 50mn\nBit rate mode                    : Constant\nBit rate                         : 320 Kbps\nChannel(s)                       : 2 channels\nChannel positions                : Front: L R\nSampling rate                    : 44.1 KHz\nBit depth                        : 16 bits\nCompression mode                 : Lossy\nStream size                      : 253 MiB (5%)\nLanguage                         : English\n\n\n\nOndertiteling : Nederlands\nBewerking : alwin1971","torrent":{"xt":"urn:btih:8f743c6711c0e285e4c1a46b954dc45ec7c9c686","amp;dn":"Verenigde+Staten","amp;tr":["udp%3A%2F%2Ftracker.openbittorrent.com%3A80","udp%3A%2F%2Fopen.demonii.com%3A1337","udp%3A%2F%2Ftracker.coppersurfer.tk%3A6969","udp%3A%2F%2Fexodus.desync.com%3A6969"],"infoHash":"8f743c6711c0e285e4c1a46b954dc45ec7c9c686","infoHashBuffer":{"type":"Buffer","data":[143,116,60,103,17,192,226,133,228,193,164,107,149,77,196,94,199,201,198,134]},"announce":[],"urlList":[]}}